Coordinates
version=1
nRows=11
nColumns=60
inDegrees=yes

Units are S.I. units (second, meters, Newtons, ...)
If the header above contains a line with 'inDegrees', this indicates whether rotational values are in degrees (yes) or radians (no).

endheader
time	pelvis_tilt	pelvis_list	pelvis_rotation	pelvis_tx	pelvis_ty	pelvis_tz	hip_flexion_r	hip_adduction_r	hip_rotation_r	knee_angle_r_beta	knee_angle_r	ankle_angle_r	subtalar_angle_r	mtp_angle_r	hip_flexion_l	hip_adduction_l	hip_rotation_l	knee_angle_l_beta	knee_angle_l	ankle_angle_l	subtalar_angle_l	mtp_angle_l	L5_S1_Flex_Ext	L5_S1_Lat_Bending	L5_S1_axial_rotation	L4_L5_Flex_Ext	L4_L5_Lat_Bending	L4_L5_axial_rotation	L3_L4_Flex_Ext	L3_L4_Lat_Bending	L3_L4_axial_rotation	L2_L3_Flex_Ext	L2_L3_Lat_Bending	L2_L3_axial_rotation	L1_L2_Flex_Ext	L1_L2_Lat_Bending	L1_L2_axial_rotation	L1_T12_Flex_Ext	L1_T12_Lat_Bending	L1_T12_axial_rotation	Abs_r3	Abs_r2	Abs_r1	Abs_t1	Abs_t2	arm_flex_r	arm_add_r	arm_rot_r	elbow_flex_r	pro_sup_r	wrist_flex_r	wrist_dev_r	arm_flex_l	arm_add_l	arm_rot_l	elbow_flex_l	pro_sup_l	wrist_flex_l	wrist_dev_l
      9.36000000	     -0.15215997	     -6.61020286	     93.75086513	      0.39601878	      0.89101723	      0.41191522	     32.99899164	     -6.90700242	      2.23498578	      0.48639020	    -27.86810542	      4.19197825	      0.00000000	      0.00000000	     32.74800763	     -3.92918358	      1.52399721	      0.42551504	    -24.38021576	      2.77374866	      0.00000000	      0.00000000	    -10.85641262	      0.38038997	      0.04309947	    -20.16144388	      0.50591865	      0.04579318	    -17.83600029	      0.92488016	      0.04579318	    -12.40779398	      0.92488016	      0.03771203	    -10.08126476	      0.77569122	      0.03501832	     -6.20335417	      0.58922406	      0.03232460	    -77.54626970	      4.30304736	      0.23970630	      0.00000000	      0.00000000	     67.04967899	    -22.52467084	     18.90209361	     50.42891673	     66.10856456	      9.48625739	      7.68012567	     72.64809769	    -18.96215648	     31.85033275	     45.08317867	     60.17724497	     15.67111440	     -0.55370302
      9.37000000	     -0.15790457	     -6.94538240	     93.75445915	      0.39599391	      0.88952452	      0.41319310	     33.51970330	     -6.94444382	      2.25189011	      0.48765853	    -27.94077571	      4.25529746	      0.00000000	      0.00000000	     33.26718637	     -3.90924118	      1.50008996	      0.42647377	    -24.43514737	      2.82733483	      0.00000000	      0.00000000	    -10.91930009	      0.38246908	      0.04146613	    -20.27823220	      0.50868387	      0.04405776	    -17.93931812	      0.92993532	      0.04405776	    -12.47966807	      0.92993532	      0.03628286	    -10.13966206	      0.77993094	      0.03369123	     -6.23928807	      0.59244460	      0.03109960	    -77.99546861	      4.32656670	      0.23062216	      0.00000000	      0.00000000	     67.96198290	    -22.46395086	     18.72997271	     50.55651199	     66.11652523	      9.48252021	      7.65033640	     73.61071905	    -18.95836301	     31.74729795	     45.12430287	     60.18492193	     15.69656624	     -0.56816745
      9.38000000	     -0.27220116	     -7.44424122	     93.69100531	      0.39610640	      0.88719491	      0.41485466	     34.72922707	     -7.05399667	      2.37609637	      0.50571495	    -28.97533215	      4.46093384	      0.00000000	      0.00000000	     34.40826051	     -3.82710406	      1.19791613	      0.44316898	    -25.39171227	      2.88344958	      0.00000000	      0.00000000	    -10.92237263	      0.36560515	      0.02656334	    -20.28393821	      0.48625485	      0.02822355	    -17.94436599	      0.88893237	      0.02822355	    -12.48317968	      0.88893237	      0.02324292	    -10.14251522	      0.74554203	      0.02158271	     -6.24104372	      0.56632238	      0.01992251	    -78.01741545	      4.13579862	      0.14773733	      0.00000000	      0.00000000	     68.80469772	    -22.11711092	     18.35796037	     50.07642489	     66.80569410	      9.54367699	      7.63237410	     75.05390053	    -19.06700337	     33.29318439	     44.08608538	     60.20459466	     16.98199712	     -0.46425401
      9.39000000	     -0.27058490	     -7.73615618	     93.71227351	      0.39607420	      0.88553945	      0.41611382	     35.38170067	     -7.08188253	      2.42256168	      0.51378818	    -29.43789434	      4.50786633	      0.00000000	      0.00000000	     35.10638464	     -3.80589807	      1.18295178	      0.45209191	    -25.90295863	      2.86037388	      0.00000000	      0.00000000	    -10.97569087	      0.36895212	      0.01504808	    -20.38295552	      0.49070632	      0.01598858	    -18.03196254	      0.89707018	      0.01598858	    -12.54411710	      0.89707018	      0.01316707	    -10.19202655	      0.75236716	      0.01222656	     -6.27150977	      0.57150683	      0.01128606	    -78.39826234	      4.17366014	      0.08369289	      0.00000000	      0.00000000	     69.70057735	    -21.98535988	     18.24142925	     50.12410259	     66.88084453	      9.54876074	      7.62192929	     75.99540367	    -19.08372338	     33.20059005	     43.91392764	     60.16972612	     17.05410010	     -0.50694506
      9.40000000	     -0.26781586	     -8.25263472	     93.69662829	      0.39606207	      0.88339047	      0.41741415	     36.34140969	     -7.12166371	      2.40050782	      0.52318927	    -29.97653688	      4.66189411	      0.00000000	      0.00000000	     36.10854680	     -3.81157282	      1.00438179	      0.46332205	    -26.54639828	      2.93746490	      0.00000000	      0.00000000	    -10.97719732	      0.36883001	      0.00479148	    -20.38575313	      0.49054391	      0.00509095	    -18.03443747	      0.89677328	      0.00509095	    -12.54583881	      0.89677328	      0.00419254	    -10.19342543	      0.75211815	      0.00389308	     -6.27237055	      0.57131768	      0.00359361	    -78.40902270	      4.17227883	      0.02664877	      0.00000000	      0.00000000	     70.55757232	    -21.78766757	     18.19413545	     49.86919358	     67.16194066	      9.54957452	      7.66616980	     76.89907535	    -19.08190468	     33.47447589	     43.39509859	     60.02632537	     17.21297910	     -0.68428928
      9.41000000	     -0.24979445	     -8.51530483	     93.71580891	      0.39602430	      0.88181417	      0.41848475	     36.92649112	     -7.13049346	      2.42959897	      0.53044911	    -30.39249502	      4.69922199	      0.00000000	      0.00000000	     36.76842597	     -3.81184966	      0.96835875	      0.47237622	    -27.06516381	      2.89849287	      0.00000000	      0.00000000	    -11.02657386	      0.37120196	     -0.01123950	    -20.47745032	      0.49369861	     -0.01194197	    -18.11555820	      0.90254044	     -0.01194197	    -12.60227127	      0.90254044	     -0.00983457	    -10.23927649	      0.75695503	     -0.00913210	     -6.30058431	      0.57499183	     -0.00842963	    -78.76171445	      4.19911080	     -0.06251075	      0.00000000	      0.00000000	     71.42151879	    -21.63121766	     18.10925359	     49.94252816	     67.25429848	      9.54435023	      7.66431111	     77.78769797	    -19.13578106	     33.39891242	     43.14552383	     59.94598710	     17.18700492	     -0.79035757
      9.42000000	     -0.22036111	     -8.81646033	     93.71968364	      0.39604627	      0.88007787	      0.41949431	     37.58216816	     -7.12550393	      2.45144960	      0.53867027	    -30.86353301	      4.77452285	      0.00000000	      0.00000000	     37.52128905	     -3.84166721	      0.90815144	      0.48329469	    -27.69074618	      2.90492655	      0.00000000	      0.00000000	    -11.06117960	      0.37181015	     -0.02607044	    -20.54171663	      0.49450750	     -0.02769985	    -18.17241196	      0.90401921	     -0.02769985	    -12.64182216	      0.90401921	     -0.02281164	    -10.27141137	      0.75819527	     -0.02118224	     -6.32035802	      0.57593393	     -0.01955283	    -79.00889973	      4.20599082	     -0.14499599	      0.00000000	      0.00000000	     72.25720626	    -21.44050968	     18.08287226	     49.93392520	     67.34831186	      9.53143632	      7.67928574	     78.62084317	    -19.17989406	     33.35891698	     42.79357068	     59.85206700	     17.11386500	     -0.90493255
      9.43000000	     -0.17260386	     -9.31622588	     93.70354766	      0.39603426	      0.87797077	      0.42050612	     38.48057590	     -7.13102812	      2.35251255	      0.54721896	    -31.35333698	      4.96576894	      0.00000000	      0.00000000	     38.53323904	     -3.91247270	      0.65001550	      0.49597130	    -28.41706235	      3.08670118	      0.00000000	      0.00000000	    -11.04902562	      0.37037562	     -0.03038756	    -20.51914548	      0.49259958	     -0.03228678	    -18.15244419	      0.90053129	     -0.03228678	    -12.62793138	      0.90053129	     -0.02658911	    -10.26012519	      0.75526997	     -0.02468989	     -6.31341324	      0.57371184	     -0.02279067	    -78.92208509	      4.18976312	     -0.16900649	      0.00000000	      0.00000000	     73.06270218	    -21.25568295	     18.18115618	     49.53934186	     67.57072896	      9.48417486	      7.76137034	     79.38812932	    -19.10118715	     33.54629801	     42.24620700	     59.61804975	     16.93000044	     -1.20258941
      9.44000000	     -0.09427391	     -9.65257391	     93.66374142	      0.39613204	      0.87619078	      0.42135342	     39.15216808	     -7.05308814	      2.36634450	      0.55465006	    -31.77910738	      5.07883647	      0.00000000	      0.00000000	     39.32389245	     -4.01139676	      0.58426340	      0.50741254	    -29.07259720	      3.21358172	      0.00000000	      0.00000000	    -11.06353352	      0.36571602	     -0.03947441	    -20.54608811	      0.48640231	     -0.04194156	    -18.17627923	      0.88920194	     -0.04194156	    -12.64451246	      0.88920194	     -0.03454011	    -10.27359723	      0.74576812	     -0.03207296	     -6.32170306	      0.56649412	     -0.02960581	    -79.02571361	      4.13705282	     -0.21954485	      0.00000000	      0.00000000	     73.87337170	    -21.00709380	     18.28146665	     49.29110607	     67.83653658	      9.42441886	      7.83383065	     80.15911609	    -19.12778912	     33.72492265	     41.77469984	     59.29798501	     16.69889062	     -1.62968337
      9.45000000	     -0.05526708	     -9.86820871	     93.64858532	      0.39612026	      0.87490980	      0.42194625	     39.51007171	     -7.02868909	      2.40646631	      0.55631591	    -31.87455364	      5.11908258	      0.00000000	      0.00000000	     39.72618104	     -4.03738135	      0.62429966	      0.51026545	    -29.23605682	      3.24452413	      0.00000000	      0.00000000	    -11.10857702	      0.36237774	     -0.04454425	    -20.62973839	      0.48196239	     -0.04732827	    -18.25028119	      0.88108524	     -0.04732827	    -12.69599268	      0.88108524	     -0.03897622	    -10.31542462	      0.73896069	     -0.03619220	     -6.34744091	      0.56132312	     -0.03340819	    -79.34745481	      4.09928947	     -0.24774176	      0.00000000	      0.00000000	     74.61094224	    -20.93561881	     18.18369472	     49.42481167	     67.85656414	      9.41708022	      7.81554776	     80.85424836	    -19.17196856	     33.60011158	     41.74366708	     59.26314691	     16.67077498	     -1.68541739
      9.46000000	      0.10299637	    -10.23212957	     93.58720745	      0.39629548	      0.87287963	      0.42277283	     40.32748184	     -6.84124838	      2.45616598	      0.56814458	    -32.55228642	      5.28712829	      0.00000000	      0.00000000	     40.77526981	     -4.25328501	      0.46180013	      0.52963587	    -30.34590012	      3.53636505	      0.00000000	      0.00000000	    -11.09754987	      0.35785405	     -0.05955418	    -20.60925986	      0.47594588	     -0.06327631	    -18.23216468	      0.87008633	     -0.06327631	    -12.68338974	      0.87008633	     -0.05210990	    -10.30518481	      0.72973598	     -0.04838777	     -6.34113999	      0.55431592	     -0.04466563	    -79.26868895	      4.04811657	     -0.33122246	      0.00000000	      0.00000000	     75.50352421	    -20.50431234	     18.54191402	     48.72771532	     68.16040259	      9.32772727	      7.93611119	     81.54532260	    -19.25822514	     34.01178396	     41.04366346	     58.92344505	     16.55941587	     -2.11445730
